# xmcd CD database file
#
# Track frame offsets:
#	182
#	12995
#	37895
#	60655
#	80442
#	101045
#	123357
#	143362
#	169257
#	193430
#	207942
#	230127
#
# Disc length: 3383 seconds
#
# Revision: 0
# Processed by: cddbd v1.4PL0 Copyright (c) Steve Scherf et al.
# Submitted via: CDex 1.50Beta7
#
DISCID=a40d350c
DTITLE=Alain Morisod - Und die Vögel Sangen...
DYEAR=1995
DGENRE=New Age
TTITLE0=Und die Vögel Sangen - Et Les Oiseaux Chantaient - And The Birds Are Singing
TTITLE1=Gaspesia
TTITLE2=Little Denia
TTITLE3=Alborada
TTITLE4=Serenity
TTITLE5=La Foret De Mon Enfance
TTITLE6=Aquarella
TTITLE7=Adagio For Her
TTITLE8=Ballad For Camilla
TTITLE9=Amazing Grace
TTITLE10=Barcarolle
TTITLE11=Nuit De Satin
EXTD=YEAR: 1995
EXTT0=
EXTT1=
EXTT2=
EXTT3=
EXTT4=
EXTT5=
EXTT6=
EXTT7=
EXTT8=
EXTT9=
EXTT10=
EXTT11=
PLAYORDER=
